<svg width="40" height="40" viewBox="0 0 147 147" fill="none" xmlns="http://www.w3.org/2000/svg">
  <g clip-path="url(#clip0_33_61)">
    <path d="M83.6798 147.092L40.4063 135.497L44.3156 120.908C45.5744 116.209 47.5861 112.905 50.3505 110.996C53.115 109.086 56.1869 108.584 59.5664 109.49C61.627 110.042 63.2817 111.037 64.5305 112.476C65.7492 113.863 66.4997 116.008 66.782 118.91C68.556 115.587 70.5731 113.499 72.8333 112.647C75.0523 111.784 77.5012 111.711 80.18 112.429C83.8067 113.401 86.3423 115.56 87.7867 118.907C89.1899 122.242 89.262 126.259 88.0031 130.957L83.6798 147.092ZM60.5911 131.629L61.966 126.498C62.5954 124.149 62.6305 122.37 62.0713 121.16C61.4709 119.939 60.3052 119.096 58.5742 118.632C57.0906 118.235 55.7629 118.409 54.5912 119.155C53.3783 119.89 52.4571 121.433 51.8276 123.782L50.4528 128.913L60.5911 131.629ZM78.2096 136.35L79.9986 129.674C80.628 127.325 80.6812 125.395 80.158 123.886C79.5937 122.365 78.3636 121.351 76.4678 120.843C74.9017 120.423 73.4942 120.731 72.2452 121.765C70.9962 122.8 70.0569 124.492 69.4275 126.841L67.6385 133.518L78.2096 136.35Z" fill="#4A4C4E"/>
    <path d="M49.2923 98.973L49.2215 98.4983L54.7336 85.9964C54.8763 85.6516 55.0792 85.2762 55.3422 84.8703L47.7146 86.0079L47.1859 82.4631L61.365 80.3484L61.4358 80.8231L55.8888 93.5243C55.7577 93.8027 55.5982 94.1069 55.4101 94.4369L63.1327 93.2852L63.6614 96.8299L49.2923 98.973Z" fill="#4A4C4E"/>
    <path d="M55.9882 69.704L56.0641 69.1694L66.0171 57.4559C66.2815 57.1299 66.6206 56.7901 67.0344 56.4368L58.4445 55.2175L59.0112 51.2255L74.9791 53.4921L74.9032 54.0268L64.8486 65.944C64.618 66.2021 64.3484 66.479 64.0398 66.7745L72.7366 68.009L72.17 72.001L55.9882 69.704Z" fill="#4A4C4E"/>
    <path d="M78.0845 83.8979L78.1465 83.1806L90.5411 66.8587C90.8693 66.4053 91.2959 65.9282 91.821 65.4275L80.2959 64.432L80.7585 59.0759L102.183 60.9265L102.121 61.6439L89.6058 78.2444C89.3177 78.605 88.979 78.9933 88.5897 79.4093L100.258 80.4172L99.7956 85.7733L78.0845 83.8979Z" fill="#4A4C4E"/>
    <path d="M73.1794 42.7658L73.2809 41.8112L90.2337 20.3793C90.6832 19.7835 91.2645 19.1588 91.9776 18.5052L76.64 16.8746L77.3979 9.74672L105.909 12.778L105.808 13.7326L88.687 35.5327C88.2934 36.0058 87.8317 36.5145 87.3019 37.0589L102.83 38.7098L102.073 45.8376L73.1794 42.7658Z" fill="#4A4C4E"/>
    <path d="M27.4813 147V102.2H36.4413V138.936H53.1453V147H27.4813Z" fill="#4A4C4E"/>
  </g>
  <defs>
    <clipPath id="clip0_33_61">
      <rect width="147" height="147" fill="white"/>
    </clipPath>
  </defs>
</svg>
